<svg id="Group_405" data-name="Group 405" xmlns="http://www.w3.org/2000/svg" xmlns:xlink="http://www.w3.org/1999/xlink" width="168.562" height="41.704" viewBox="0 0 168.562 41.704">
  <defs>
    <linearGradient id="linear-gradient" y1="0.5" x2="1" y2="0.5" gradientUnits="objectBoundingBox">
      <stop offset="0" stop-color="#f55a00"/>
      <stop offset="1" stop-color="#fd205b"/>
    </linearGradient>
    <linearGradient id="linear-gradient-2" y1="0.5" x2="1" y2="0.5" gradientUnits="objectBoundingBox">
      <stop offset="0" stop-color="#ff9908"/>
      <stop offset="1" stop-color="#ff4879" stop-opacity="0"/>
    </linearGradient>
  </defs>
  <path id="Rectangle_243" data-name="Rectangle 243" d="M12.206,0H156.355a12.206,12.206,0,0,1,12.206,12.206V29.23a12.206,12.206,0,0,1-12.206,12.206H12.207A12.207,12.207,0,0,1,0,29.23V12.206A12.206,12.206,0,0,1,12.206,0Z" transform="translate(0 0.268)" fill="url(#linear-gradient)"/>
  <path id="Path_17146" data-name="Path 17146" d="M562.069,270.574H409.4a7.945,7.945,0,0,0-7.945,7.945v25.545c0,.148.014.291.022.437.457-11.038,9.546-20.651,20.7-20.651H549.3c11.15,0,20.239,9.614,20.7,20.651.008-.146.022-.289.022-.437V278.519A7.945,7.945,0,0,0,562.069,270.574Z" transform="translate(-401.453 -270.574)" opacity="0.5" fill="url(#linear-gradient-2)" style="mix-blend-mode: screen;isolation: isolate"/>
</svg>
