<svg xmlns="http://www.w3.org/2000/svg" width="123.574" height="101.691" viewBox="0 0 123.574 101.691">
  <g id="Group_73" data-name="Group 73" transform="translate(-39.098 -70.192)">
    <path id="Path_51" data-name="Path 51" d="M9.769,66.742c4.841,0,7.734,3.544,7.734,6.971a5.456,5.456,0,0,1-3.246,5.071,6.376,6.376,0,0,1-4.72.335,6.925,6.925,0,0,0,2.529,3.9,7.2,7.2,0,0,0,6,1.162.819.819,0,0,1,.414,1.585,8.559,8.559,0,0,1-10.788-8.1l-.07-1.813L9.023,77a4.4,4.4,0,0,0,4.535.3,3.872,3.872,0,0,0,2.313-3.591c0-2.586-2.139-5.332-6.1-5.332a7.962,7.962,0,0,0-6.927,3.888c-1.7,2.858-1.6,6.492.273,9.97,1.227,2.277,3.4,3.72,5.695,5.247a28.943,28.943,0,0,1,3.869,2.893,9.468,9.468,0,0,1,2.254,3.151,12.224,12.224,0,0,1,7.608,3.287,15.007,15.007,0,0,1,1.7,1.932.8.8,0,0,1,.2.184,24.139,24.139,0,0,1,2.862,4.593c2.135,3.471,4.69,4.823,9.169,6.011,2.516.668,4.85,2.282,6.524.943a5.124,5.124,0,0,0,1.9-4.348,4.458,4.458,0,0,0-4.116-3.9c-1.487,0-2.5.7-2.7,1.86a1.961,1.961,0,0,0,1.154,2.217.819.819,0,0,1-.565,1.537,3.586,3.586,0,0,1-2.2-4.04,4.032,4.032,0,0,1,4.312-3.21,6.07,6.07,0,0,1,5.747,5.488c.076,2.306-.6,5.4-4.281,6.552s-12.231-2.523-14.092-4.925c-.064,1.645-1.217,4.331-2.806,4.925s-6.838,1.415-8.193-2.188.437-4.278,1.653-4.991a3.353,3.353,0,0,1,4.158.628.817.817,0,1,1-1.241,1.064,1.732,1.732,0,0,0-2.093-.279,2.341,2.341,0,0,0-1.04,2.156c.067.853-.012,1.234.761,1.824,1.555,1.184,4.658,1.441,5.981,0a5.817,5.817,0,0,0,.911-5.462,9.558,9.558,0,0,0-.406-1.112c-.2-.32-.391-.639-.58-.954a25.333,25.333,0,0,0-3.835-5.306A10.627,10.627,0,0,0,15.45,95.2a9.007,9.007,0,0,1-1.637,6.95,5.82,5.82,0,0,1-4.083,2.377,4.288,4.288,0,0,1-4.791-4.378,5.558,5.558,0,0,1,1.71-3.975,10.647,10.647,0,0,1,6.456-2.64,8,8,0,0,0-1.544-1.965,27.346,27.346,0,0,0-3.652-2.721C5.545,87.28,3.1,85.655,1.68,83.017c-2.153-4-2.24-8.222-.239-11.588A9.58,9.58,0,0,1,9.769,66.742Zm-2,30.63a3.884,3.884,0,0,0-1.2,2.78,2.736,2.736,0,0,0,.811,2.027,2.7,2.7,0,0,0,1.891.735c.108,0,.21-.005.3-.014a4.225,4.225,0,0,0,2.916-1.712,7.3,7.3,0,0,0,1.243-6.07A9.151,9.151,0,0,0,7.768,97.372ZM91.922,56.831c-4.841,0-7.732-3.543-7.732-6.969a5.455,5.455,0,0,1,3.245-5.071,6.363,6.363,0,0,1,4.72-.335,6.925,6.925,0,0,0-2.529-3.9,7.207,7.207,0,0,0-6-1.162.819.819,0,0,1-.415-1.585A8.559,8.559,0,0,1,94,45.906l.07,1.815-1.4-1.148a4.4,4.4,0,0,0-4.535-.3,3.872,3.872,0,0,0-2.313,3.591c0,2.584,2.139,5.332,6.1,5.332a7.962,7.962,0,0,0,6.927-3.888c1.7-2.858,1.6-6.492-.273-9.97-1.227-2.279-3.4-3.72-5.695-5.248A28.743,28.743,0,0,1,89.012,33.2a9.475,9.475,0,0,1-2.254-3.151,12.215,12.215,0,0,1-7.607-3.287,14.966,14.966,0,0,1-1.694-1.928.8.8,0,0,1-.2-.189,24.128,24.128,0,0,1-2.861-4.589c-2.135-3.472-4.521-6.842-9-8.029A7.622,7.622,0,0,0,58.7,13.1a5.124,5.124,0,0,0-1.9,4.348,4.457,4.457,0,0,0,4.116,3.9c1.487,0,2.5-.7,2.7-1.86a1.96,1.96,0,0,0-1.154-2.216.819.819,0,0,1,.565-1.537,3.583,3.583,0,0,1,2.2,4.04,4.03,4.03,0,0,1-4.311,3.21A6.07,6.07,0,0,1,55.164,17.5a6.792,6.792,0,0,1,2.519-5.683,8.509,8.509,0,0,1,5.344-1.745,10.923,10.923,0,0,1,2.782.37,14.2,14.2,0,0,1,7.727,5.431,6.617,6.617,0,0,1,1.62-4.25,5.732,5.732,0,0,1,4.213-1.77,5.576,5.576,0,0,1,3.377,1.095,4.978,4.978,0,0,1,1.98,3.483,3.979,3.979,0,0,1-1.843,3.7,3.353,3.353,0,0,1-4.158-.628.818.818,0,0,1,1.242-1.065,1.725,1.725,0,0,0,2.091.279,2.337,2.337,0,0,0,1.04-2.154,3.32,3.32,0,0,0-1.34-2.306,4.218,4.218,0,0,0-5.4.479,5.823,5.823,0,0,0-.909,5.463,9.389,9.389,0,0,0,.406,1.112c.2.32.391.639.58.954a25.286,25.286,0,0,0,3.835,5.306,10.632,10.632,0,0,0,5.973,2.808,9.007,9.007,0,0,1,1.637-6.95,5.818,5.818,0,0,1,4.083-2.377,4.288,4.288,0,0,1,4.791,4.378A5.55,5.55,0,0,1,95.04,27.4a10.641,10.641,0,0,1-6.454,2.641A8,8,0,0,0,90.13,32a27.243,27.243,0,0,0,3.651,2.719c2.365,1.572,4.81,3.2,6.23,5.836,2.153,4,2.24,8.222.239,11.588A9.581,9.581,0,0,1,91.922,56.831Zm2-30.628a3.888,3.888,0,0,0,1.195-2.78,2.656,2.656,0,0,0-3.006-2.748A4.221,4.221,0,0,0,89.2,22.387a7.293,7.293,0,0,0-1.243,6.068A9.153,9.153,0,0,0,93.924,26.2ZM60.911,100.59a4.032,4.032,0,0,1,4.312,3.21,3.586,3.586,0,0,1-2.2,4.04.819.819,0,0,1-.565-1.537,1.961,1.961,0,0,0,1.154-2.217c-.207-1.164-1.218-1.86-2.7-1.86a4.458,4.458,0,0,0-4.116,3.9,5.124,5.124,0,0,0,1.9,4.348,7.615,7.615,0,0,0,6.693,1.072c4.481-1.187,6.867-4.557,9-8.028a24.176,24.176,0,0,1,2.861-4.59.839.839,0,0,1,.2-.184,15.025,15.025,0,0,1,1.7-1.932,12.218,12.218,0,0,1,7.607-3.287,9.45,9.45,0,0,1,2.254-3.151,28.86,28.86,0,0,1,3.869-2.893c2.3-1.527,4.468-2.97,5.695-5.247,1.872-3.478,1.971-7.112.273-9.97a7.962,7.962,0,0,0-6.927-3.888c-3.962,0-6.1,2.746-6.1,5.332A3.872,3.872,0,0,0,88.134,77.3a4.405,4.405,0,0,0,4.535-.3l1.4-1.148L94,77.667a8.559,8.559,0,0,1-10.788,8.1.819.819,0,0,1,.415-1.585,7.2,7.2,0,0,0,6-1.162,6.925,6.925,0,0,0,2.529-3.9,6.364,6.364,0,0,1-4.72-.337,5.452,5.452,0,0,1-3.245-5.07c0-3.426,2.892-6.971,7.732-6.971a9.58,9.58,0,0,1,8.329,4.687c2,3.366,1.913,7.59-.239,11.588-1.42,2.638-3.865,4.263-6.229,5.834a27.347,27.347,0,0,0-3.652,2.721,8,8,0,0,0-1.544,1.965,10.64,10.64,0,0,1,6.454,2.64,5.555,5.555,0,0,1,1.711,3.975,4.29,4.29,0,0,1-4.791,4.378,5.822,5.822,0,0,1-4.083-2.377,9.007,9.007,0,0,1-1.637-6.95,10.636,10.636,0,0,0-5.973,2.808,25.286,25.286,0,0,0-3.835,5.306c-.19.315-.384.634-.58.952a9.492,9.492,0,0,0-.406,1.113,5.82,5.82,0,0,0,.909,5.462,4.215,4.215,0,0,0,5.4.481,3.32,3.32,0,0,0,1.34-2.3,2.342,2.342,0,0,0-1.04-2.156,1.73,1.73,0,0,0-2.091.279.818.818,0,1,1-1.242-1.064,3.353,3.353,0,0,1,4.158-.628,3.978,3.978,0,0,1,1.843,3.7,4.98,4.98,0,0,1-1.98,3.483,5.844,5.844,0,0,1-7.59-.675,6.617,6.617,0,0,1-1.62-4.251,14.2,14.2,0,0,1-7.727,5.432,9.244,9.244,0,0,1-8.126-1.375,6.792,6.792,0,0,1-2.519-5.683A6.07,6.07,0,0,1,60.911,100.59Zm28.285.6a4.225,4.225,0,0,0,2.916,1.712c.1.009.2.014.3.014a2.7,2.7,0,0,0,1.891-.735,2.735,2.735,0,0,0,.809-2.027,3.888,3.888,0,0,0-1.195-2.78,9.151,9.151,0,0,0-5.97-2.254A7.3,7.3,0,0,0,89.2,101.187ZM40.78,22.985a4.032,4.032,0,0,1-4.312-3.21,3.585,3.585,0,0,1,2.2-4.04.819.819,0,0,1,.565,1.537,1.96,1.96,0,0,0-1.154,2.216c.207,1.164,1.218,1.86,2.7,1.86a4.457,4.457,0,0,0,4.116-3.9,5.124,5.124,0,0,0-1.9-4.348A7.622,7.622,0,0,0,36.3,12.022c-4.481,1.187-6.865,4.556-9,8.027a24.05,24.05,0,0,1-2.862,4.592.8.8,0,0,1-.2.189,15.056,15.056,0,0,1-1.693,1.928,12.224,12.224,0,0,1-7.608,3.287A9.494,9.494,0,0,1,12.679,33.2a28.894,28.894,0,0,1-3.867,2.892c-2.3,1.528-4.469,2.97-5.7,5.248-1.872,3.478-1.972,7.112-.273,9.97a7.962,7.962,0,0,0,6.927,3.888c3.962,0,6.1-2.748,6.1-5.332a3.87,3.87,0,0,0-2.313-3.591,4.405,4.405,0,0,0-4.535.3l-1.4,1.149.07-1.815a8.559,8.559,0,0,1,10.788-8.094.819.819,0,0,1-.414,1.585,7.2,7.2,0,0,0-6,1.162,6.921,6.921,0,0,0-2.529,3.9,6.363,6.363,0,0,1,4.72.335A5.456,5.456,0,0,1,17.5,49.862c0,3.426-2.893,6.969-7.734,6.969A9.581,9.581,0,0,1,1.44,52.145c-2-3.367-1.913-7.59.239-11.588,1.42-2.638,3.865-4.264,6.23-5.836A27.407,27.407,0,0,0,11.561,32a8,8,0,0,0,1.544-1.965A10.655,10.655,0,0,1,6.65,27.4a5.553,5.553,0,0,1-1.71-3.974,4.288,4.288,0,0,1,4.791-4.378,5.815,5.815,0,0,1,4.083,2.377,9.007,9.007,0,0,1,1.637,6.95,10.636,10.636,0,0,0,5.973-2.808,25.333,25.333,0,0,0,3.835-5.306c.191-.315.384-.634.58-.954a9.471,9.471,0,0,0,.406-1.112,5.82,5.82,0,0,0-.911-5.463,4.213,4.213,0,0,0-5.4-.478,3.32,3.32,0,0,0-1.34,2.3,2.338,2.338,0,0,0,1.04,2.155,1.727,1.727,0,0,0,2.093-.279.813.813,0,0,1,1.15-.09.821.821,0,0,1,.091,1.155,3.355,3.355,0,0,1-4.158.628,3.979,3.979,0,0,1-1.843-3.7,4.978,4.978,0,0,1,1.98-3.483,5.561,5.561,0,0,1,3.377-1.094,5.731,5.731,0,0,1,4.213,1.768,6.617,6.617,0,0,1,1.62,4.25,14.2,14.2,0,0,1,7.727-5.431,10.866,10.866,0,0,1,2.782-.37,8.522,8.522,0,0,1,5.344,1.745A6.792,6.792,0,0,1,46.527,17.5,6.07,6.07,0,0,1,40.78,22.985Zm-28.285-.6a4.221,4.221,0,0,0-2.916-1.712,2.658,2.658,0,0,0-3.007,2.748,3.884,3.884,0,0,0,1.2,2.78,9.15,9.15,0,0,0,5.97,2.253A7.293,7.293,0,0,0,12.495,22.387Zm38.991,89.989.6.646a7.21,7.21,0,0,1,0,9.907l-.6.645-.6-.645a7.21,7.21,0,0,1,0-9.907Zm-.927,5.921a5.685,5.685,0,0,0,.927,2.751,5.672,5.672,0,0,0,.927-2.751,5.738,5.738,0,0,0-.927-3.389A5.738,5.738,0,0,0,50.559,118.3Zm.927-107.1-.6-.645a7.347,7.347,0,0,1-1.959-5.367A7.322,7.322,0,0,1,50.888.645l.6-.645.6.645a7.322,7.322,0,0,1,1.959,4.54,7.347,7.347,0,0,1-1.959,5.367Zm.927-5.919a5.667,5.667,0,0,0-.927-2.751,5.676,5.676,0,0,0-.927,2.751,5.741,5.741,0,0,0,.927,3.389A5.741,5.741,0,0,0,52.413,5.278Z" transform="translate(39.098 171.883) rotate(-90)" fill="#f55a00"/>
    <text id="Aaj_Kya_Banaye_" data-name="Aaj Kya 
Banaye?" transform="translate(101.098 113.192)" fill="#fff" font-size="20" font-family="Satisfy-Regular, Satisfy" letter-spacing="0.02em"><tspan x="-32.953" y="0">Aaj Kya </tspan><tspan x="-32.518" y="25">Banaye?</tspan></text>
  </g>
</svg>
