<svg xmlns="http://www.w3.org/2000/svg" width="24" height="22" viewBox="0 0 24 22">
  <g id="calendar" transform="translate(-351.767 -2166.194)">
    <g id="Rectangle_38" data-name="Rectangle 38" transform="translate(351.767 2168.194)" fill="none" stroke="#fff" stroke-linejoin="round" stroke-width="1">
      <rect width="24" height="20" rx="2" stroke="none"/>
      <rect x="0.5" y="0.5" width="23" height="19" rx="1.5" fill="none"/>
    </g>
    <g id="Group_77" data-name="Group 77" transform="translate(355.954 2166.034)">
      <g id="Rectangle_39" data-name="Rectangle 39" transform="translate(-0.188 0.161)" fill="none" stroke="#fff" stroke-width="1">
        <rect width="4" height="5" rx="2" stroke="none"/>
        <rect x="0.5" y="0.5" width="3" height="4" rx="1.5" fill="none"/>
      </g>
      <g id="Rectangle_40" data-name="Rectangle 40" transform="translate(5.812 0.161)" fill="none" stroke="#fff" stroke-width="1">
        <rect width="4" height="5" rx="2" stroke="none"/>
        <rect x="0.5" y="0.5" width="3" height="4" rx="1.5" fill="none"/>
      </g>
      <g id="Rectangle_41" data-name="Rectangle 41" transform="translate(11.812 0.161)" fill="none" stroke="#fff" stroke-width="1">
        <rect width="4" height="5" rx="2" stroke="none"/>
        <rect x="0.5" y="0.5" width="3" height="4" rx="1.5" fill="none"/>
      </g>
    </g>
    <path id="Path_16655" data-name="Path 16655" d="M0,0H23.335" transform="translate(352.237 2173.935)" fill="none" stroke="#fff" stroke-width="1"/>
    <g id="Group_78" data-name="Group 78" transform="translate(355.954 2176.078)">
      <g id="Rectangle_140" data-name="Rectangle 140" transform="translate(-1.188 0.116)" fill="none" stroke="#fff" stroke-linejoin="round" stroke-width="1">
        <rect width="3" height="3" stroke="none"/>
        <rect x="0.5" y="0.5" width="2" height="2" fill="none"/>
      </g>
      <g id="Rectangle_141" data-name="Rectangle 141" transform="translate(3.813 0.116)" fill="none" stroke="#fff" stroke-linejoin="round" stroke-width="1">
        <rect width="3" height="3" stroke="none"/>
        <rect x="0.5" y="0.5" width="2" height="2" fill="none"/>
      </g>
      <g id="Rectangle_142" data-name="Rectangle 142" transform="translate(8.813 0.116)" fill="none" stroke="#fff" stroke-linejoin="round" stroke-width="1">
        <rect width="3" height="3" stroke="none"/>
        <rect x="0.5" y="0.5" width="2" height="2" fill="none"/>
      </g>
      <g id="Rectangle_232" data-name="Rectangle 232" transform="translate(13.813 0.116)" fill="none" stroke="#fff" stroke-linejoin="round" stroke-width="1">
        <rect width="3" height="3" stroke="none"/>
        <rect x="0.5" y="0.5" width="2" height="2" fill="none"/>
      </g>
      <g id="Rectangle_140-2" data-name="Rectangle 140" transform="translate(-1.188 5.116)" fill="none" stroke="#fff" stroke-linejoin="round" stroke-width="1">
        <rect width="3" height="3" stroke="none"/>
        <rect x="0.5" y="0.5" width="2" height="2" fill="none"/>
      </g>
      <g id="Rectangle_141-2" data-name="Rectangle 141" transform="translate(3.813 5.116)" fill="none" stroke="#fff" stroke-linejoin="round" stroke-width="1">
        <rect width="3" height="3" stroke="none"/>
        <rect x="0.5" y="0.5" width="2" height="2" fill="none"/>
      </g>
      <g id="Rectangle_142-2" data-name="Rectangle 142" transform="translate(8.813 5.116)" fill="none" stroke="#fff" stroke-linejoin="round" stroke-width="1">
        <rect width="3" height="3" stroke="none"/>
        <rect x="0.5" y="0.5" width="2" height="2" fill="none"/>
      </g>
      <g id="Rectangle_232-2" data-name="Rectangle 232" transform="translate(13.813 5.116)" fill="none" stroke="#fff" stroke-linejoin="round" stroke-width="1">
        <rect width="3" height="3" stroke="none"/>
        <rect x="0.5" y="0.5" width="2" height="2" fill="none"/>
      </g>
    </g>
  </g>
</svg>
