<svg xmlns="http://www.w3.org/2000/svg" width="19.477" height="21.839" viewBox="0 0 19.477 21.839">
  <g id="home" transform="translate(-14 -9.85)">
    <g id="Group_3" data-name="Group 3" transform="translate(14 9.85)">
      <path id="Path_1" data-name="Path 1" d="M15.719,31.689h4.01a1.652,1.652,0,0,0,1.719-1.633v-6.3a.655.655,0,0,1,.573-.659H25.17a.655.655,0,0,1,.573.659v6.3a1.652,1.652,0,0,0,1.719,1.633h4.3a1.652,1.652,0,0,0,1.719-1.633V19.087a1.757,1.757,0,0,0-.544-1.26l-8.02-7.5a1.7,1.7,0,0,0-2.349,0l-8.02,7.5A1.709,1.709,0,0,0,14,19.087v10.97A1.652,1.652,0,0,0,15.719,31.689Zm-.573-12.6a.583.583,0,0,1,.172-.43l8.02-7.5a.572.572,0,0,1,.773,0l8.02,7.5a.583.583,0,0,1,.172.43v10.97a.507.507,0,0,1-.573.487H27.462a.507.507,0,0,1-.573-.487v-6.3a1.8,1.8,0,0,0-1.719-1.8H22.02a1.78,1.78,0,0,0-1.719,1.8v6.3a.507.507,0,0,1-.573.487h-4.01a.507.507,0,0,1-.573-.487Z" transform="translate(-14 -9.85)" fill="#fff"/>
    </g>
  </g>
</svg>
