<svg xmlns="http://www.w3.org/2000/svg" width="26.731" height="17.821" viewBox="0 0 26.731 17.821">
  <g id="menu" transform="translate(-3 -7.5)">
    <path id="Path_1" data-name="Path 1" d="M3,8.833A1.333,1.333,0,0,1,4.333,7.5H15.065a1.333,1.333,0,1,1,0,2.666H4.333A1.333,1.333,0,0,1,3,8.833Z" transform="translate(0)" fill="#fff"/>
    <path id="Path_2" data-name="Path 2" d="M3,17.841a1.331,1.331,0,0,1,1.329-1.333H28.4a1.333,1.333,0,0,1,0,2.666H4.329A1.331,1.331,0,0,1,3,17.841Z" transform="translate(0 -1.43)" fill="#fff"/>
    <path id="Path_3" data-name="Path 3" d="M4.333,25.515a1.333,1.333,0,1,0,0,2.666H20.424a1.333,1.333,0,0,0,0-2.666Z" transform="translate(0 -2.86)" fill="#fff"/>
  </g>
</svg>
