<svg xmlns="http://www.w3.org/2000/svg" width="15.01" height="17.207" viewBox="0 0 15.01 17.207">
  <path id="call2" d="M31.123,296.076l-.314.236a2.105,2.105,0,0,0-.418,2.948l1.851,2.462a2.105,2.105,0,0,0,2.948.418h0a2.14,2.14,0,0,1,3,.425l1.281,1.7a1.328,1.328,0,0,1-.263,1.861h0a6.336,6.336,0,0,1-8.871-1.258L27,300.438a6.335,6.335,0,0,1,1.258-8.871h0a1.325,1.325,0,0,1,1.855.263l1.351,1.8A1.748,1.748,0,0,1,31.123,296.076Z" transform="translate(-25.227 -290.697)" fill="none" stroke="#fff" stroke-miterlimit="10" stroke-width="1"/>
</svg>
