<svg xmlns="http://www.w3.org/2000/svg" width="49.867" height="64.482" viewBox="0 0 49.867 64.482">
  <g id="Group_94" data-name="Group 94" transform="translate(-1480.887 -841.169)">
    <g id="Group_86" data-name="Group 86" transform="translate(1481.903 875.936)">
      <path id="Path_16659" data-name="Path 16659" d="M1488.74,1135.6a49.593,49.593,0,0,1,9.8-8.465,19.055,19.055,0,0,0,.245,12.39,35.021,35.021,0,0,1,6.666-12.614,46.391,46.391,0,0,0,4.542-5.682,8.324,8.324,0,0,0,1.067-6.963c-1.517-4.1-8.1-6.279-10.9-2.512a60.125,60.125,0,0,0-8.515,14.65c-.573,1.505-1.093,3.031-1.574,4.568C1489.72,1132.1,1489.5,1134.743,1488.74,1135.6Z" transform="translate(-1488.74 -1109.811)" fill="#ef0a0a"/>
    </g>
    <g id="Group_87" data-name="Group 87" transform="translate(1507.609 876.004)">
      <path id="Path_16660" data-name="Path 16660" d="M1710.511,1135.754a49.591,49.591,0,0,0-10-8.23,19.054,19.054,0,0,1,.048,12.392,35.024,35.024,0,0,0-6.963-12.453,46.39,46.39,0,0,1-4.676-5.573,8.324,8.324,0,0,1-1.231-6.936c1.419-4.134,7.949-6.469,10.834-2.769a60.144,60.144,0,0,1,8.86,14.445c.609,1.491,1.164,3,1.682,4.529C1709.449,1132.281,1709.728,1134.914,1710.511,1135.754Z" transform="translate(-1687.367 -1110.336)" fill="#ef0a0a"/>
    </g>
    <g id="Group_88" data-name="Group 88" transform="translate(1480.887 841.169)">
      <path id="Path_16661" data-name="Path 16661" d="M1529.382,845.926c-2.111-3.183-24.1-4.757-24.1-4.757s-21.985,1.575-24.1,4.757c-1.138,1.716.9,23.914,6.643,33s17.453,12.436,17.453,12.436,11.71-3.348,17.453-12.436S1530.52,847.642,1529.382,845.926Z" transform="translate(-1480.887 -841.169)" fill="#ffcb4a"/>
    </g>
    <g id="Group_89" data-name="Group 89" transform="translate(1484.287 845.517)">
      <path id="Path_16662" data-name="Path 16662" d="M1552.256,875.173a1.87,1.87,0,0,0-.39-.409c.235,5.735-1.961,23.41-6.929,31.272-5.743,9.088-17.453,12.435-17.453,12.435s-11.71-3.348-17.453-12.435a30.4,30.4,0,0,1-2.87-6.353,34.79,34.79,0,0,0,3.546,8.493c5.743,9.088,17.453,12.436,17.453,12.436s11.71-3.348,17.453-12.436S1553.395,876.889,1552.256,875.173Z" transform="translate(-1507.162 -874.764)" fill="#ffbb43"/>
    </g>
    <g id="Group_90" data-name="Group 90" transform="translate(1484.927 844.526)">
      <path id="Path_16663" data-name="Path 16663" d="M1552.569,871.079c-1.762-2.655-20.106-3.97-20.106-3.97s-18.344,1.314-20.106,3.97c-.95,1.432.751,19.955,5.543,27.537s14.563,10.376,14.563,10.376,9.771-2.794,14.563-10.376S1553.519,872.51,1552.569,871.079Z" transform="translate(-1512.104 -867.109)" fill="#ffe878"/>
    </g>
    <g id="Group_91" data-name="Group 91" transform="translate(1489.983 848.032)">
      <path id="Path_16664" data-name="Path 16664" d="M1586.581,894.664a1.8,1.8,0,0,0-.489-.463c.447,3.813-1.352,19.874-5.729,26.8-4.792,7.583-14.563,10.376-14.563,10.376s-9.771-2.794-14.563-10.376l-.064-.1c.238.462.484.9.74,1.3,4.792,7.583,14.563,10.377,14.563,10.377s9.771-2.794,14.563-10.377S1587.531,896.1,1586.581,894.664Z" transform="translate(-1551.172 -894.201)" fill="#ffbb43"/>
    </g>
    <g id="Group_92" data-name="Group 92" transform="translate(1487.684 846.712)" opacity="0.49">
      <path id="Path_16665" data-name="Path 16665" d="M1536.87,885.4a5.815,5.815,0,0,0-2.887,2.393,6.324,6.324,0,0,0-.534,2.6,34.314,34.314,0,0,0,3.753,17.28c.278.539.665,1.135,1.269,1.187a41.78,41.78,0,0,1-2.564-13.314,12,12,0,0,1,.4-3.971,5,5,0,0,1,2.435-3.047,14.393,14.393,0,0,1,2.873-.735,3.232,3.232,0,0,0,2.34-1.65C1545.628,882.089,1537.87,884.936,1536.87,885.4Z" transform="translate(-1533.409 -883.996)" fill="#fff"/>
    </g>
    <g id="Group_93" data-name="Group 93" transform="translate(1495.638 851.606)">
      <path id="Path_16666" data-name="Path 16666" d="M1610.452,940.177l-5.956-3.147-5.969,3.122,1.153-6.637-4.814-4.712,6.669-.955,2.994-6.035,2.969,6.047,6.665.983-4.834,4.692Z" transform="translate(-1594.864 -921.813)" fill="#ffcb4a"/>
    </g>
  </g>
</svg>
