<svg xmlns="http://www.w3.org/2000/svg" width="15.648" height="15.64" viewBox="0 0 15.648 15.64">
  <path id="Path_16658" data-name="Path 16658" d="M29.333,16.114l-.867-.867a2.641,2.641,0,0,0-3.735-.006l-.006.006L15.7,24.27a.44.44,0,0,0-.119.22l-1.1,5.084a.44.44,0,0,0,.44.535.454.454,0,0,0,.095,0l5.084-1.1a.44.44,0,0,0,.22-.119l9.023-9.023a2.641,2.641,0,0,0,.007-3.735ZM16.651,24.578l7.6-7.6L27.6,20.333,20,27.93Zm-.363.88,2.834,2.834-3.625.79Zm12.418-6.232-.473.484L24.87,16.348l.482-.482a1.76,1.76,0,0,1,2.489,0l.863.863a1.761,1.761,0,0,1,.01,2.49Z" transform="translate(-14.473 -14.471)" fill="#fff"/>
</svg>
