<svg xmlns="http://www.w3.org/2000/svg" width="38.885" height="64.482" viewBox="0 0 38.885 64.482">
  <g id="Group_129" data-name="Group 129" transform="translate(-1537.053 -1435.143)">
    <g id="Group_115" data-name="Group 115" transform="translate(1553.578 1458.102)">
      <path id="Path_16681" data-name="Path 16681" d="M1655.979,1602.159a2.917,2.917,0,1,1,2.917-2.917A2.921,2.921,0,0,1,1655.979,1602.159Zm0-4.712a1.794,1.794,0,1,0,1.795,1.794A1.8,1.8,0,0,0,1655.979,1597.447Z" transform="translate(-1653.062 -1596.324)" fill="#ffcb4a"/>
    </g>
    <g id="Group_116" data-name="Group 116" transform="translate(1537.053 1460.739)">
      <rect id="Rectangle_167" data-name="Rectangle 167" width="27.496" height="27.496" transform="translate(0 19.442) rotate(-45)" fill="#ffcb4a"/>
    </g>
    <g id="Group_117" data-name="Group 117" transform="translate(1537.053 1479.118)">
      <path id="Path_16682" data-name="Path 16682" d="M1574.874,1743.861l-18.815,18.815-18.378-18.378-.628.628,19.442,19.442,19.443-19.442Z" transform="translate(-1537.053 -1743.861)" fill="#f2af41"/>
    </g>
    <g id="Group_118" data-name="Group 118" transform="translate(1541.201 1464.887)">
      <rect id="Rectangle_168" data-name="Rectangle 168" width="21.63" height="21.63" transform="translate(0 15.294) rotate(-45)" fill="#ffe878"/>
    </g>
    <g id="Group_119" data-name="Group 119" transform="translate(1541.201 1464.887)">
      <path id="Path_16683" data-name="Path 16683" d="M1566.173,1659.247l15.294,15.294c.3-.109,15.294-15.294,15.294-15.294l-15.294-15.294,13.934,15.294-13.934,13.822Z" transform="translate(-1566.173 -1643.953)" fill="#f2af41"/>
    </g>
    <g id="Group_120" data-name="Group 120" transform="translate(1543.201 1466.929)" opacity="0.47">
      <path id="Path_16684" data-name="Path 16684" d="M1592.984,1658.577l-12.315,11.77a1.406,1.406,0,0,0-.424.575c-.182.614.5,1.132,1.11,1.321a1.3,1.3,0,0,0,.606.074c.425-.075.692-.486.916-.854a55.322,55.322,0,0,1,7.748-9.322,7.182,7.182,0,0,1,2.27-1.793,3.451,3.451,0,0,0,1.158-.578C1594.816,1659.018,1593.884,1657.716,1592.984,1658.577Z" transform="translate(-1580.214 -1658.293)" fill="#fff"/>
    </g>
    <g id="Group_121" data-name="Group 121" transform="translate(1543.276 1464.963)" opacity="0.47">
      <path id="Path_16685" data-name="Path 16685" d="M1589.187,1645.92c-2.341,2.392-4.714,4.766-7.055,7.158l-.431.5a2.443,2.443,0,0,0-.962,1.635,3.156,3.156,0,0,0,2-1.322,90.252,90.252,0,0,1,7.409-7.4c.358-.318,1.806-1.433,1.045-1.931C1590.57,1644.155,1589.566,1645.534,1589.187,1645.92Z" transform="translate(-1580.74 -1644.488)" fill="#fff"/>
    </g>
    <g id="Group_122" data-name="Group 122" transform="translate(1554.931 1452.651)">
      <path id="Path_16686" data-name="Path 16686" d="M1664.015,1565.878h0a1.459,1.459,0,0,1-1.459-1.459v-4.9a1.459,1.459,0,0,1,1.459-1.459h0a1.459,1.459,0,0,1,1.459,1.459v4.9A1.459,1.459,0,0,1,1664.015,1565.878Z" transform="translate(-1662.556 -1558.057)" fill="#f2af41"/>
    </g>
    <g id="Group_123" data-name="Group 123" transform="translate(1538.722 1451.224)">
      <rect id="Rectangle_169" data-name="Rectangle 169" width="35.38" height="2.855" transform="translate(0 0)" fill="#ffcb4a"/>
    </g>
    <g id="Group_124" data-name="Group 124" transform="translate(1538.722 1435.143)">
      <rect id="Rectangle_170" data-name="Rectangle 170" width="35.38" height="2.855" transform="translate(0 0)" fill="#ffcb4a"/>
    </g>
    <g id="Group_125" data-name="Group 125" transform="translate(1540.353 1437.875)">
      <rect id="Rectangle_171" data-name="Rectangle 171" width="32.12" height="13.348" transform="translate(0 0)" fill="#ef0a0a"/>
    </g>
    <g id="Group_126" data-name="Group 126" transform="translate(1540.353 1437.875)">
      <path id="Path_16687" data-name="Path 16687" d="M1560.216,1454.327v1.389s13.231-.709,21.573,2.085,10.547,7.592,10.547,7.592v-11.066Z" transform="translate(-1560.216 -1454.327)" fill="#c1332d"/>
    </g>
    <g id="Group_127" data-name="Group 127" transform="translate(1538.722 1452.988)">
      <rect id="Rectangle_172" data-name="Rectangle 172" width="35.38" height="1.091" transform="translate(0 0)" fill="#f2af41"/>
    </g>
    <g id="Group_128" data-name="Group 128" transform="translate(1538.722 1436.906)">
      <rect id="Rectangle_173" data-name="Rectangle 173" width="35.38" height="1.091" transform="translate(0 0)" fill="#f2af41"/>
    </g>
  </g>
</svg>
