<svg xmlns="http://www.w3.org/2000/svg" width="27.768" height="11.396" viewBox="0 0 27.768 11.396">
  <g id="relation" transform="translate(-36.544 -250.802)">
    <path id="user" d="M7.638,4.986a2.751,2.751,0,0,1,.569.242,2.5,2.5,0,0,1,.566.464,2.993,2.993,0,0,1,.506.734,4.609,4.609,0,0,1,.35,1.094,7.4,7.4,0,0,1,.14,1.5A2.4,2.4,0,0,1,9.132,10.7a2,2,0,0,1-1.532.7H2.168a2,2,0,0,1-1.533-.7A2.4,2.4,0,0,1,0,9.024a7.392,7.392,0,0,1,.14-1.5A4.616,4.616,0,0,1,.49,6.427,2.991,2.991,0,0,1,1,5.692a2.5,2.5,0,0,1,.566-.464,2.751,2.751,0,0,1,.569-.242,3.226,3.226,0,0,1-.245-2.992A3.221,3.221,0,0,1,3.622.258a3.221,3.221,0,0,1,2.525,0A3.224,3.224,0,0,1,7.883,1.994a3.227,3.227,0,0,1-.245,2.992ZM4.884.814a2.353,2.353,0,0,0-1.727.715,2.354,2.354,0,0,0-.716,1.727,2.35,2.35,0,0,0,.715,1.727A2.355,2.355,0,0,0,4.884,5.7a2.351,2.351,0,0,0,1.727-.715,2.353,2.353,0,0,0,.715-1.727A2.353,2.353,0,0,0,6.611,1.53,2.352,2.352,0,0,0,4.884.814ZM7.6,10.582a1.228,1.228,0,0,0,.957-.455,1.62,1.62,0,0,0,.4-1.1,4.863,4.863,0,0,0-.5-2.4A1.668,1.668,0,0,0,7.021,5.7a3.145,3.145,0,0,1-2.137.808A3.145,3.145,0,0,1,2.747,5.7a1.669,1.669,0,0,0-1.434.922,4.864,4.864,0,0,0-.5,2.4,1.618,1.618,0,0,0,.4,1.1,1.23,1.23,0,0,0,.957.455H7.6Z" transform="translate(36.544 250.802)" fill="#fff"/>
    <path id="user-2" data-name="user" d="M7.638,4.986a2.751,2.751,0,0,1,.569.242,2.5,2.5,0,0,1,.566.464,2.993,2.993,0,0,1,.506.734,4.609,4.609,0,0,1,.35,1.094,7.4,7.4,0,0,1,.14,1.5A2.4,2.4,0,0,1,9.132,10.7a2,2,0,0,1-1.532.7H2.168a2,2,0,0,1-1.533-.7A2.4,2.4,0,0,1,0,9.024a7.392,7.392,0,0,1,.14-1.5A4.616,4.616,0,0,1,.49,6.427,2.991,2.991,0,0,1,1,5.692a2.5,2.5,0,0,1,.566-.464,2.751,2.751,0,0,1,.569-.242,3.226,3.226,0,0,1-.245-2.992A3.221,3.221,0,0,1,3.622.258a3.221,3.221,0,0,1,2.525,0A3.224,3.224,0,0,1,7.883,1.994a3.227,3.227,0,0,1-.245,2.992ZM4.884.814a2.353,2.353,0,0,0-1.727.715,2.354,2.354,0,0,0-.716,1.727,2.35,2.35,0,0,0,.715,1.727A2.355,2.355,0,0,0,4.884,5.7a2.351,2.351,0,0,0,1.727-.715,2.353,2.353,0,0,0,.715-1.727A2.353,2.353,0,0,0,6.611,1.53,2.352,2.352,0,0,0,4.884.814ZM7.6,10.582a1.228,1.228,0,0,0,.957-.455,1.62,1.62,0,0,0,.4-1.1,4.863,4.863,0,0,0-.5-2.4A1.668,1.668,0,0,0,7.021,5.7a3.145,3.145,0,0,1-2.137.808A3.145,3.145,0,0,1,2.747,5.7a1.669,1.669,0,0,0-1.434.922,4.864,4.864,0,0,0-.5,2.4,1.618,1.618,0,0,0,.4,1.1,1.23,1.23,0,0,0,.957.455H7.6Z" transform="translate(54.544 250.802)" fill="#fff"/>
    <line id="Line_18" data-name="Line 18" x2="8" transform="translate(46.5 256.5)" fill="none" stroke="#fff" stroke-width="1"/>
  </g>
</svg>
