<svg xmlns="http://www.w3.org/2000/svg" width="13" height="13" viewBox="0 0 13 13">
  <g id="settings" transform="translate(-2.715 -2.295)">
    <path id="Path_17" data-name="Path 17" d="M14.473,9.148V8.436l.918-.782a.914.914,0,0,0,.182-1.187L14.444,4.6a.961.961,0,0,0-.827-.466.98.98,0,0,0-.306.047l-1.162.382a5.468,5.468,0,0,0-.627-.349l-.244-1.173a.951.951,0,0,0-.956-.75H8.083a.951.951,0,0,0-.956.75L6.883,4.218a5.531,5.531,0,0,0-.631.349l-1.138-.4a.981.981,0,0,0-.306-.028.961.961,0,0,0-.827.466L2.852,6.467a.914.914,0,0,0,.2,1.169l.9.805v.712l-.9.782a.914.914,0,0,0-.2,1.187l1.129,1.862a.961.961,0,0,0,.827.466.98.98,0,0,0,.306-.047l1.162-.382a5.468,5.468,0,0,0,.627.349l.244,1.173a.951.951,0,0,0,.956.75H10.36a.951.951,0,0,0,.956-.75l.244-1.173a5.531,5.531,0,0,0,.631-.349l1.157.382a.98.98,0,0,0,.306.047.961.961,0,0,0,.827-.466l1.09-1.862a.914.914,0,0,0-.2-1.169Zm-.856,3.371-1.64-.54a4.265,4.265,0,0,1-1.3.731l-.339,1.672H8.084l-.34-1.653A4.506,4.506,0,0,1,6.453,12l-1.645.521L3.679,10.657,4.98,9.54a4.036,4.036,0,0,1,0-1.457l-1.3-1.15L4.808,5.07l1.64.54a4.265,4.265,0,0,1,1.3-.731l.339-1.672h2.257l.34,1.653a4.506,4.506,0,0,1,1.291.731l1.645-.521,1.129,1.862-1.3,1.117a4.037,4.037,0,0,1,0,1.457l1.3,1.15Z" transform="translate(0 0)" fill="#fff"/>
    <path id="Path_18" data-name="Path 18" d="M14.119,16.837a2.795,2.795,0,1,1,2.869-2.794,2.729,2.729,0,0,1-.832,1.984A2.881,2.881,0,0,1,14.119,16.837Zm0-4.656a1.9,1.9,0,0,0-1.366.533,1.889,1.889,0,0,0,0,2.659,2.017,2.017,0,0,0,2.731,0,1.889,1.889,0,0,0,0-2.659A1.9,1.9,0,0,0,14.119,12.181Z" transform="translate(-4.907 -5.249)" fill="#fff"/>
  </g>
</svg>
