<svg xmlns="http://www.w3.org/2000/svg" width="13" height="15.167" viewBox="0 0 13 15.167">
  <path id="user" d="M10.165,6.635a3.661,3.661,0,0,1,.757.321,3.328,3.328,0,0,1,.753.618,3.983,3.983,0,0,1,.673.977,6.134,6.134,0,0,1,.466,1.456,9.841,9.841,0,0,1,.186,2,3.192,3.192,0,0,1-.846,2.23,2.665,2.665,0,0,1-2.04.927H2.886a2.665,2.665,0,0,1-2.04-.927A3.189,3.189,0,0,1,0,12.01a9.837,9.837,0,0,1,.186-2A6.143,6.143,0,0,1,.652,8.553a3.98,3.98,0,0,1,.673-.978,3.328,3.328,0,0,1,.753-.618,3.661,3.661,0,0,1,.757-.321A4.293,4.293,0,0,1,2.51,2.653,4.287,4.287,0,0,1,4.82.343a4.287,4.287,0,0,1,3.36,0,4.29,4.29,0,0,1,2.31,2.31,4.3,4.3,0,0,1-.326,3.982ZM6.5,1.083a3.131,3.131,0,0,0-2.3.952,3.133,3.133,0,0,0-.953,2.3,3.128,3.128,0,0,0,.952,2.3,3.135,3.135,0,0,0,2.3.952,3.129,3.129,0,0,0,2.3-.952,3.132,3.132,0,0,0,.952-2.3,3.132,3.132,0,0,0-.952-2.3A3.13,3.13,0,0,0,6.5,1.083Zm3.614,13a1.634,1.634,0,0,0,1.274-.6,2.156,2.156,0,0,0,.529-1.468,6.472,6.472,0,0,0-.664-3.191A2.22,2.22,0,0,0,9.344,7.592,4.186,4.186,0,0,1,6.5,8.667,4.186,4.186,0,0,1,3.656,7.592,2.221,2.221,0,0,0,1.748,8.819a6.474,6.474,0,0,0-.665,3.191,2.153,2.153,0,0,0,.529,1.468,1.636,1.636,0,0,0,1.274.605h7.228Z" fill="#fff"/>
</svg>
