<svg xmlns="http://www.w3.org/2000/svg" width="32" height="24" viewBox="0 0 32 24">
  <path id="Icon_Camera" data-name="Icon Camera" d="M29.539,24H2.461A2.434,2.434,0,0,1,0,21.6V6A2.434,2.434,0,0,1,2.461,3.6H7.709a2.458,2.458,0,0,0,2.2-1.326l.484-.947A2.457,2.457,0,0,1,12.6,0h6.8a2.456,2.456,0,0,1,2.2,1.326l.485.947A2.454,2.454,0,0,0,24.29,3.6h5.249A2.434,2.434,0,0,1,32,6V21.6A2.434,2.434,0,0,1,29.539,24ZM16,4.8a8.52,8.52,0,0,0-8.616,8.4A8.519,8.519,0,0,0,16,21.6a8.519,8.519,0,0,0,8.615-8.4A8.519,8.519,0,0,0,16,4.8ZM27.076,6a1.2,1.2,0,1,0,1.231,1.2A1.217,1.217,0,0,0,27.076,6ZM16,19.2a6.085,6.085,0,0,1-6.154-6,6.156,6.156,0,0,1,12.307,0A6.085,6.085,0,0,1,16,19.2ZM7.384,2.4H3.693a1.217,1.217,0,0,1,1.23-1.2H6.154a1.217,1.217,0,0,1,1.23,1.2Z" fill="#8a8a8f"/>
</svg>
