<svg xmlns="http://www.w3.org/2000/svg" width="15" height="14" viewBox="0 0 15 14">
  <path id="Icon_Friend" data-name="Icon Friend" d="M5.2,14C2.83,14,0,13.707,0,12.312v-.378c0-.455.387-.962,1.119-1.465a10.3,10.3,0,0,1,2.3-1.128.924.924,0,0,0,.337-.42,1.212,1.212,0,0,0,.016-.96A4.956,4.956,0,0,1,2.383,4.653,2.712,2.712,0,0,1,5.189,1.733a2.909,2.909,0,0,1,2,.742,2.878,2.878,0,0,1,.869,2.179,5,5,0,0,1-1.437,3.3h0a1.413,1.413,0,0,0,.03,1.116.63.63,0,0,0,.223.272c1.744.569,3.5,1.591,3.5,2.593v.378C10.377,13.432,8.636,14,5.2,14Zm6.174-2.837h0c-.555-1.4-2.533-2.307-3.663-2.723A6.061,6.061,0,0,0,9.209,4.652,3.911,3.911,0,0,0,7.786,1.5,2.418,2.418,0,0,1,10.121,0a2.55,2.55,0,0,1,1.815.7,2.8,2.8,0,0,1,.757,2.049,4.628,4.628,0,0,1-1.229,3.1,1.016,1.016,0,0,0-.028.756.418.418,0,0,0,.263.209l.008,0C13.345,7.349,15,8.31,15,9.252v.356c0,.9-1.219,1.426-3.622,1.556Z" fill="#8a8a8f"/>
</svg>
