<svg xmlns="http://www.w3.org/2000/svg" width="19.038" height="23.974" viewBox="0 0 19.038 23.974">
  <path id="Path_17090" data-name="Path 17090" d="M268.168,182.776a3.853,3.853,0,1,0-1.618-2.193l-2.273,1.613-3.6,2.555a3.831,3.831,0,1,0,.61,6.36l2.991,2.121,2.273,1.613a3.781,3.781,0,0,0-.144,1.024,3.844,3.844,0,1,0,1.759-3.217l-3.255-2.309-2.251-1.6a3.862,3.862,0,0,0,.053-.613,3.816,3.816,0,0,0-.238-1.317l2.436-1.729Zm1.99-5.415a2.159,2.159,0,1,1-2.16,2.159A2.159,2.159,0,0,1,270.158,177.361Zm-11.325,13.056a2.159,2.159,0,1,1,2.158-2.159A2.159,2.159,0,0,1,258.833,190.416Zm11.325,3.322A2.159,2.159,0,1,1,268,195.9,2.159,2.159,0,0,1,270.158,193.739Z" transform="translate(-255.041 -175.726)" fill="#fff"/>
</svg>
