<svg xmlns="http://www.w3.org/2000/svg" width="60" height="60" viewBox="0 0 60 60">
  <g id="Group_373" data-name="Group 373" transform="translate(6972 -464)">
    <circle id="Ellipse_54" data-name="Ellipse 54" cx="30" cy="30" r="30" transform="translate(-6972 464)" fill="#fff"/>
    <g id="spinwheel" transform="translate(-6962 474)">
      <path id="Path_16645" data-name="Path 16645" d="M645.937,153.225l-5.475-9.483h10.95Z" transform="translate(-626.288 -142.868)" fill="#f55a00"/>
      <path id="Path_16644" data-name="Path 16644" d="M634.611,146.666a19.649,19.649,0,1,0,19.649,19.649A19.649,19.649,0,0,0,634.611,146.666Zm0,34.745a15.1,15.1,0,1,1,15.1-15.1A15.1,15.1,0,0,1,634.611,181.411Z" transform="translate(-614.962 -146.666)" fill="#f55a00" stroke="#f55a00" stroke-miterlimit="10" stroke-width="2"/>
      <circle id="Ellipse_16" data-name="Ellipse 16" cx="3.195" cy="3.195" r="3.195" transform="translate(16.454 16.454)" fill="#f55a00"/>
      <line id="Line_11" data-name="Line 11" x2="14.969" y2="26.022" transform="translate(12.163 6.736)" fill="none" stroke="#f55a00" stroke-miterlimit="10" stroke-width="2"/>
      <line id="Line_12" data-name="Line 12" x1="15.176" y2="25.543" transform="translate(12.122 6.845)" fill="none" stroke="#f55a00" stroke-miterlimit="10" stroke-width="2"/>
      <line id="Line_13" data-name="Line 13" x2="29.873" transform="translate(4.704 19.569)" fill="none" stroke="#f55a00" stroke-miterlimit="10" stroke-width="2"/>
    </g>
  </g>
</svg>
